{
    "asset" : {
        "generator" : "Khronos glTF Blender I/O v1.6.16",
        "version" : "2.0"
    },
    "scene" : 0,
    "scenes" : [
        {
            "name" : "Scene",
            "nodes" : [
                0,
                1,
                2
            ]
        }
    ],
    "nodes" : [
        {
            "name" : "Light",
            "rotation" : [
                0.16907575726509094,
                0.7558803558349609,
                -0.27217137813568115,
                0.570947527885437
            ],
            "translation" : [
                4.076245307922363,
                5.903861999511719,
                -1.0054539442062378
            ]
        },
        {
            "name" : "Camera",
            "rotation" : [
                0.483536034822464,
                0.33687159419059753,
                -0.20870360732078552,
                0.7804827094078064
            ],
            "translation" : [
                7.358891487121582,
                4.958309173583984,
                6.925790786743164
            ]
        },
        {
            "mesh" : 0,
            "name" : "SM_MERGED_BP_Terminal_2",
            "scale" : [
                0.009999999776482582,
                0.009999999776482582,
                0.009999999776482582
            ]
        }
    ],
    "materials" : [
        {
            "doubleSided" : true,
            "emissiveFactor" : [
                0,
                1,
                0.07863712310791016
            ],
            "name" : "M_Status",
            "pbrMetallicRoughness" : {
                "baseColorFactor" : [
                    0.2158605009317398,
                    0.2158605009317398,
                    0.2158605009317398,
                    1
                ],
                "roughnessFactor" : 0.5527864098548889
            }
        },
        {
            "doubleSided" : true,
            "name" : "M_TerminalTopColor",
            "pbrMetallicRoughness" : {
                "baseColorFactor" : [
                    0.671875,
                    0.6235693693161011,
                    0.3878079652786255,
                    1
                ],
                "roughnessFactor" : 0.5527864098548889
            }
        },
        {
            "doubleSided" : true,
            "name" : "M_EjectButton",
            "pbrMetallicRoughness" : {
                "baseColorFactor" : [
                    0.1885417252779007,
                    0.14924919605255127,
                    0.06109558790922165,
                    1
                ],
                "roughnessFactor" : 0.5527864098548889
            }
        },
        {
            "doubleSided" : true,
            "name" : "Material",
            "pbrMetallicRoughness" : {
                "baseColorFactor" : [
                    0,
                    0,
                    0,
                    1
                ],
                "metallicFactor" : 0,
                "roughnessFactor" : 0.4000000059604645
            }
        }
    ],
    "meshes" : [
        {
            "name" : "SM_MERGED_BP_Terminal_2",
            "primitives" : [
                {
                    "attributes" : {
                        "POSITION" : 0,
                        "NORMAL" : 1,
                        "TEXCOORD_0" : 2,
                        "TEXCOORD_1" : 3
                    },
                    "indices" : 4,
                    "material" : 0
                },
                {
                    "attributes" : {
                        "POSITION" : 5,
                        "NORMAL" : 6,
                        "TEXCOORD_0" : 7,
                        "TEXCOORD_1" : 8
                    },
                    "indices" : 9,
                    "material" : 1
                },
                {
                    "attributes" : {
                        "POSITION" : 10,
                        "NORMAL" : 11,
                        "TEXCOORD_0" : 12,
                        "TEXCOORD_1" : 13
                    },
                    "indices" : 4,
                    "material" : 2
                },
                {
                    "attributes" : {
                        "POSITION" : 14,
                        "NORMAL" : 15,
                        "TEXCOORD_0" : 16,
                        "TEXCOORD_1" : 17
                    },
                    "indices" : 18,
                    "material" : 3
                }
            ]
        }
    ],
    "accessors" : [
        {
            "bufferView" : 0,
            "componentType" : 5126,
            "count" : 24,
            "max" : [
                -179.3122100830078,
                55.66753005981445,
                194.73886108398438
            ],
            "min" : [
                -184.16200256347656,
                50.81772994995117,
                182.55224609375
            ],
            "type" : "VEC3"
        },
        {
            "bufferView" : 1,
            "componentType" : 5126,
            "count" : 24,
            "type" : "VEC3"
        },
        {
            "bufferView" : 2,
            "componentType" : 5126,
            "count" : 24,
            "type" : "VEC2"
        },
        {
            "bufferView" : 3,
            "componentType" : 5126,
            "count" : 24,
            "type" : "VEC2"
        },
        {
            "bufferView" : 4,
            "componentType" : 5123,
            "count" : 36,
            "type" : "SCALAR"
        },
        {
            "bufferView" : 5,
            "componentType" : 5126,
            "count" : 574,
            "max" : [
                200.00001525878906,
                497.58819580078125,
                200.00001525878906
            ],
            "min" : [
                -200,
                -100.00006103515625,
                -200.0000457763672
            ],
            "type" : "VEC3"
        },
        {
            "bufferView" : 6,
            "componentType" : 5126,
            "count" : 574,
            "type" : "VEC3"
        },
        {
            "bufferView" : 7,
            "componentType" : 5126,
            "count" : 574,
            "type" : "VEC2"
        },
        {
            "bufferView" : 8,
            "componentType" : 5126,
            "count" : 574,
            "type" : "VEC2"
        },
        {
            "bufferView" : 9,
            "componentType" : 5123,
            "count" : 1158,
            "type" : "SCALAR"
        },
        {
            "bufferView" : 10,
            "componentType" : 5126,
            "count" : 24,
            "max" : [
                5.139544486999512,
                60.74263000488281,
                202.31443786621094
            ],
            "min" : [
                -9.860456466674805,
                45.74263000488281,
                187.31443786621094
            ],
            "type" : "VEC3"
        },
        {
            "bufferView" : 11,
            "componentType" : 5126,
            "count" : 24,
            "type" : "VEC3"
        },
        {
            "bufferView" : 12,
            "componentType" : 5126,
            "count" : 24,
            "type" : "VEC2"
        },
        {
            "bufferView" : 13,
            "componentType" : 5126,
            "count" : 24,
            "type" : "VEC2"
        },
        {
            "bufferView" : 14,
            "componentType" : 5126,
            "count" : 80,
            "max" : [
                176.23004150390625,
                473.8182373046875,
                182.93704223632812
            ],
            "min" : [
                -176.23004150390625,
                45.922821044921875,
                -165.13681030273438
            ],
            "type" : "VEC3"
        },
        {
            "bufferView" : 15,
            "componentType" : 5126,
            "count" : 80,
            "type" : "VEC3"
        },
        {
            "bufferView" : 16,
            "componentType" : 5126,
            "count" : 80,
            "type" : "VEC2"
        },
        {
            "bufferView" : 17,
            "componentType" : 5126,
            "count" : 80,
            "type" : "VEC2"
        },
        {
            "bufferView" : 18,
            "componentType" : 5123,
            "count" : 120,
            "type" : "SCALAR"
        }
    ],
    "bufferViews" : [
        {
            "buffer" : 0,
            "byteLength" : 288,
            "byteOffset" : 0
        },
        {
            "buffer" : 0,
            "byteLength" : 288,
            "byteOffset" : 288
        },
        {
            "buffer" : 0,
            "byteLength" : 192,
            "byteOffset" : 576
        },
        {
            "buffer" : 0,
            "byteLength" : 192,
            "byteOffset" : 768
        },
        {
            "buffer" : 0,
            "byteLength" : 72,
            "byteOffset" : 960
        },
        {
            "buffer" : 0,
            "byteLength" : 6888,
            "byteOffset" : 1032
        },
        {
            "buffer" : 0,
            "byteLength" : 6888,
            "byteOffset" : 7920
        },
        {
            "buffer" : 0,
            "byteLength" : 4592,
            "byteOffset" : 14808
        },
        {
            "buffer" : 0,
            "byteLength" : 4592,
            "byteOffset" : 19400
        },
        {
            "buffer" : 0,
            "byteLength" : 2316,
            "byteOffset" : 23992
        },
        {
            "buffer" : 0,
            "byteLength" : 288,
            "byteOffset" : 26308
        },
        {
            "buffer" : 0,
            "byteLength" : 288,
            "byteOffset" : 26596
        },
        {
            "buffer" : 0,
            "byteLength" : 192,
            "byteOffset" : 26884
        },
        {
            "buffer" : 0,
            "byteLength" : 192,
            "byteOffset" : 27076
        },
        {
            "buffer" : 0,
            "byteLength" : 960,
            "byteOffset" : 27268
        },
        {
            "buffer" : 0,
            "byteLength" : 960,
            "byteOffset" : 28228
        },
        {
            "buffer" : 0,
            "byteLength" : 640,
            "byteOffset" : 29188
        },
        {
            "buffer" : 0,
            "byteLength" : 640,
            "byteOffset" : 29828
        },
        {
            "buffer" : 0,
            "byteLength" : 240,
            "byteOffset" : 30468
        }
    ],
    "buffers" : [
        {
            "byteLength" : 30708,
            "uri" : "data:application/octet-stream;base64,"
        }
    ]
}
